<svg width="67" height="72" viewBox="0 0 67 72" fill="none" xmlns="http://www.w3.org/2000/svg">
<path d="M61.017 35.5989C64.1245 35.0946 66.2348 32.1666 65.7305 29.059C65.2262 25.9515 62.2982 23.8412 59.1906 24.3455C56.0831 24.8498 53.9727 27.7778 54.4771 30.8854C54.9814 33.9929 57.9094 36.1033 61.017 35.5989Z" fill="white"/>
<path d="M63.2771 45.4467L43.3958 39.5082L49.3542 5.68405C50.0295 1.83093 46.097 -1.18801 42.5418 0.460488L2.79893 18.9912C0.37583 20.1234 -0.676826 23.0033 0.455278 25.4264L20.8729 69.2011C22.005 71.6242 24.8849 72.6768 27.308 71.5447L32.5713 69.1018L63.9524 54.4639C67.9644 52.577 67.5275 46.7179 63.2771 45.4467Z" fill="white"/>
<path d="M42.5418 0.460488L2.79893 18.9912C0.37583 20.1234 -0.676826 23.0033 0.455278 25.4264L20.8729 69.2011C22.005 71.6242 24.8849 72.6768 27.308 71.5447L36.4046 67.2944C37.8346 66.6191 38.8475 65.3082 39.1256 63.759L49.3542 5.68405C50.0295 1.83093 46.097 -1.18801 42.5418 0.460488Z" fill="url(#paint0_linear)"/>
<path d="M30.3071 26.7768C33.4553 26.7768 36.0074 24.2247 36.0074 21.0766C36.0074 17.9284 33.4553 15.3763 30.3071 15.3763C27.1589 15.3763 24.6069 17.9284 24.6069 21.0766C24.6069 24.2247 27.1589 26.7768 30.3071 26.7768Z" fill="white"/>
<path d="M60.0993 35.6749C63.2474 35.6749 65.7995 33.1228 65.7995 29.9747C65.7995 26.8265 63.2474 24.2744 60.0993 24.2744C56.9511 24.2744 54.399 26.8265 54.399 29.9747C54.399 33.1228 56.9511 35.6749 60.0993 35.6749Z" fill="#F7931E"/>
<path d="M63.2772 45.4468L18.8868 32.1793C14.8946 30.9876 11.3593 35.0791 13.1269 38.8528L26.1362 66.7383C27.2683 69.1614 30.1482 70.2141 32.5713 69.082L63.9525 54.4441C67.9645 52.5771 67.5275 46.7179 63.2772 45.4468Z" fill="url(#paint1_linear)"/>
<path d="M39.1256 63.7591L43.3958 39.5082L18.8868 32.1793C14.8946 30.9876 11.3593 35.0791 13.1269 38.8528L26.1362 66.7383C27.2683 69.1614 30.1482 70.2141 32.5713 69.082L36.4245 67.2944C37.8346 66.6191 38.8476 65.3083 39.1256 63.7591Z" fill="url(#paint2_linear)"/>
<defs>
<linearGradient id="paint0_linear" x1="24.7143" y1="71.9916" x2="24.7143" y2="-0.00625687" gradientUnits="userSpaceOnUse">
<stop stop-color="#F15A24"/>
<stop offset="1" stop-color="#FBB03B"/>
</linearGradient>
<linearGradient id="paint1_linear" x1="12.6541" y1="50.7529" x2="66.7287" y2="50.7529" gradientUnits="userSpaceOnUse">
<stop stop-color="#F15A24"/>
<stop offset="1" stop-color="#FBB03B"/>
</linearGradient>
<linearGradient id="paint2_linear" x1="12.654" y1="50.7529" x2="43.3907" y2="50.7529" gradientUnits="userSpaceOnUse">
<stop stop-color="#E82F07"/>
<stop offset="1" stop-color="#ED4509"/>
</linearGradient>
</defs>
</svg>
